<?xml version="1.0" encoding="utf-8"?>
<!-- Generator: Adobe Illustrator 17.0.0, SVG Export Plug-In . SVG Version: 6.00 Build 0)  -->
<!DOCTYPE svg PUBLIC "-//W3C//DTD SVG 1.1//EN" "http://www.w3.org/Graphics/SVG/1.1/DTD/svg11.dtd">
<svg version="1.1" id="Layer_1" xmlns="http://www.w3.org/2000/svg" xmlns:xlink="http://www.w3.org/1999/xlink" x="0px" y="0px"
	 width="20px" height="16px" viewBox="0 0 422.658 323.15" enable-background="new 0 0 422.658 323.15"
	 xml:space="preserve" fill="#FFF">
<path d="M400.57,75.364c-0.604-0.236-1.322-0.363-2.066-0.363c-1.766,0-3.332,0.684-4.297,1.878
	c-1.125,1.399-2.338,3.396-3.628,5.513c-2.298,3.783-4.905,8.07-7.484,9.722c-1.046,0.674-2.286,1.291-4.259,1.291
	c-0.972,0-2.07-0.143-3.358-0.433c-0.665-0.164-3.704-1.386-8.607-3.364c-13.837-5.584-42.608-17.194-74.251-27.12
	c-25.93-8.136-51.798-14.668-65.692-18.177c-5.899-1.487-9.532-2.411-10.217-2.683c-3.874-1.547-7.271-6.792-6.136-15.02
	l0.107-0.764c1.149-8.262,2.456-17.627-5.912-19.533c-4.88-1.112-10.663-2.021-14.887-2.686l-0.067-0.009
	c-2.214-0.349-4.128-0.648-5.145-0.862c-0.582-0.124-1.184-0.187-1.787-0.187c-2.747,0-6.886,1.294-11,7.448
	c-0.53,0.794-1.081,1.658-1.662,2.566c-3.923,6.148-9.297,14.564-18.901,17.207c-5.658,1.551-10.128,1.872-15.1,1.872
	c-2.165,0-4.415-0.064-7.017-0.136c-3.176-0.087-6.732-0.189-10.949-0.193c-2.395,0-4.866-0.057-7.257-0.108l-0.071-0.003
	c-2.44-0.055-4.964-0.109-7.398-0.109c-3.556,0-6.377,0.119-8.884,0.374l-0.217,0.024c-6.965,0.706-12.977,1.315-20.483,11.421
	c-2.15,2.898-4.491,6.656-3.498,10.062c0.642,2.211,2.526,3.891,5.756,5.126c4.02,1.534,13.044,1.8,20.293,2.014l0.247,0.006
	c1.455,0.044,2.79,0.084,3.917,0.136c31.644,1.364,71.704,4.603,128.899,18.252c81.377,19.421,118.094,36.459,127.407,41.22
	c9.938,5.079,15.929,10.096,15.639,13.096c-0.18,1.844-2.975,3.018-5.283,3.68c-3.439,0.987-12.904,2.039-29.163,2.039
	c-15.314,0-70.395-1.18-136.267-16.36c-63.528-14.638-130.547-40.513-152.572-58.91l-0.19-0.156
	c-3.801-3.173-9.543-7.967-10.743-19.307c-1.188-11.224-0.172-18.346,0.644-24.07c0.281-1.964,0.607-3.845,0.896-5.503
	c0.634-3.649,1.136-6.534,0.836-8.254c-0.305-1.744-1.125-3.118-2.576-4.329C36.858,0.564,34.458,0,31.057,0
	c-1.446,0-3.071,0.106-4.84,0.312l-0.274,0.03C20.489,0.972,11.364,2.028,7.275,5.809C3.241,9.542,1.402,15.816,0.494,28.958
	c-0.498,7.223-0.666,18.073,1.369,28.739c2.773,14.537,14.096,27.839,22.952,34.806c17.826,14.033,39.537,26.572,64.529,37.256
	c28.282,12.089,61.255,22.732,98.01,31.632c3.451,0.837,6.925,2.014,8.447,2.86c5.499,3.069,8.528,8.014,8.528,13.925
	c0,4.738-2.203,9.557-5.748,12.587c-2.296,1.957-5.09,2.913-8.543,2.913c-2.225,0-4.419-0.398-6.453-0.824
	c-37.072-7.751-72.171-19.684-104.33-35.469c-33.192-16.293-50.21-30.705-53.283-33.428c-2.641-2.337-4.985-4.678-7.053-6.742
	c-4.614-4.609-7.938-7.926-11.127-7.926c-3.213,0-4.87,3.431-5.415,4.561c-4.981,10.318-1.947,25.438,7.379,36.759
	c3.944,4.793,21.125,21.166,52.793,39.137c9.66,5.479,19.975,10.668,30.654,15.419l0.912,0.405l-0.005,0.009
	c7.949,3.764,11.44,10.188,10.379,19.111c-0.627,5.259-4.819,10.918-12.541,10.918c-2.497,0-5.212-0.591-8.073-1.766
	c-26.995-12.348-48.664-26.892-64.432-43.244c-0.282-0.29-0.527-0.544-0.74-0.764c-3.783-3.865-6.223-6.234-8.547-6.234
	c-0.679,0-1.316,0.202-1.89,0.604c-2.887,2.02-4.436,7.404-4.144,14.403c0.33,7.886,2.773,15.881,6.881,22.505
	c1.897,3.064,3.62,5.305,5.286,7.47c3.186,4.143,5.937,7.715,8.371,15.248c2.646,8.189,3.853,14.468,4.733,19.057
	c1.007,5.252,1.673,8.72,3.653,11.157c4.335,5.346,14.854,8.188,17.602,8.364c0.091,0.003,0.178,0.003,0.266,0.003
	c2.272,0,3.274-2.014,4.334-4.15c0.099-0.197,0.195-0.396,0.295-0.592c2.729-5.389,5.286-9.514,11.153-9.514
	c0.237,0,0.483,0.01,0.736,0.023c5.212,0.305,19.14,5.659,26.975,8.826l0.248,0.096c21.582,8.702,44.825,15.378,69.079,19.853
	c27.664,5.103,53.561,8.013,76.979,8.631c1.667,0.05,6.876,0.057,12.908,0.07l3.074,0.005c14.651,0.025,20.548,2.047,22.527,7.718
	c0.318,0.907,0.444,2.009,0.577,3.179c0.457,3.986,1.061,6.597,5.179,6.597c0.137,0,0.277,0,0.424-0.009
	c0.705-0.029,1.473-0.055,2.29-0.083c8.148-0.283,21.788-0.749,24.817-7.591c4.399-9.941,12.204-17.81,18.041-21.863
	c1.059-0.736,3.231-2.045,5.747-3.562c4.909-2.96,11.633-7.011,14.672-9.573c10.773-9.064,14.284-12.962,15.24-19.679
	c0.517-3.637-0.573-6.064-3.332-7.429c-0.54-0.266-1.268-0.4-2.168-0.4c-2.622,0-6.181,1.167-8.433,2.167
	c-0.992,0.438-11.014,4.416-15.534,6c-7.589,2.661-16.771,4.672-20.867,5.248c-0.578,0.08-1.164,0.167-1.753,0.259
	c-2.498,0.374-5.084,0.761-7.621,0.761c-2.323,0-4.302-0.33-6.057-1.006c-5.779-2.226-6.958-8.184-6.21-12.609
	c1.469-8.687,6.766-13.383,16.193-14.356c0.186-0.023,19.744-2.381,29.934-4.416c15.799-3.158,26.608-6.89,31.449-9.333
	c11.274-5.684,17.436-13.246,19.397-23.795c0.767-4.144,0.766-9.345-3.61-10.581c-0.29-0.083-0.606-0.122-0.968-0.122
	c-1.693-0.003-4.239,0.897-8.099,2.253c-2.533,0.893-5.391,1.904-8.703,2.902c-11.293,3.408-36.068,9.12-75.109,9.12
	c-12.99,0-26.766-0.644-40.943-1.906c-8.234-0.705-14.213-7.007-14.213-14.988c0-8.702,5.819-14.777,14.152-14.777
	c0.248,0,0.502,0.005,0.759,0.01c2.926,0.125,7.693,0.478,13.213,0.889c11.596,0.864,27.479,2.049,39.387,2.049
	c11.468,0,23.01-0.422,34.31-1.26c29.147-2.148,48.989-9.757,58.976-22.605c13.159-16.934,21.035-42.262,22.214-54.043
	c0.398-4.005-0.593-7.406-2.872-9.842C414.923,83.882,405.803,77.388,400.57,75.364z M243.984,240.674
	c6.089,0.576,11.4,1.247,13.683,4.063c1.992,2.461,1.77,7.803,0.07,12.596c-2.132,6.023-7.818,10.793-15.019,11.96
	c-9.453,1.535-40.997-1.884-63.246-5.843c-10.029-1.779-26.064-5.886-32.076-9.166c-5.105-2.788-8.665-7.174-9.612-13.555
	c-0.792-5.333-0.214-10.17,2.186-12.918c1.994-2.28,5.133-3.534,10.243-2.741c3.556,0.555,25.987,6.348,38.956,8.573
	C212.138,237.588,240.566,240.346,243.984,240.674z"/>
<path d="M400.57,75.364c-0.605-0.236-1.322-0.363-2.066-0.363c-1.766,0-3.332,0.684-4.297,1.878
	c-1.125,1.399-2.338,3.396-3.628,5.513c-2.298,3.783-4.905,8.07-7.484,9.722c-1.046,0.674-2.286,1.291-4.259,1.291
	c-0.972,0-2.07-0.143-3.358-0.433c-0.665-0.164-3.704-1.386-8.607-3.364c-13.837-5.584-42.608-17.194-74.252-27.12
	c-25.93-8.136-51.798-14.668-65.692-18.177c-5.899-1.487-9.532-2.411-10.217-2.683c-3.874-1.547-7.271-6.792-6.136-15.02
	l0.107-0.764c1.149-8.262,2.456-17.627-5.912-19.533c-4.88-1.112-10.663-2.021-14.887-2.686l-0.067-0.009
	c-2.214-0.349-4.128-0.648-5.145-0.862c-0.582-0.124-1.184-0.187-1.787-0.187c-2.747,0-6.886,1.294-11,7.448
	c-0.53,0.794-1.081,1.658-1.662,2.566c-3.923,6.148-9.297,14.564-18.901,17.207c-5.658,1.551-10.128,1.872-15.1,1.872
	c-2.165,0-4.415-0.064-7.017-0.136c-3.176-0.087-6.732-0.189-10.949-0.193c-2.395,0-4.866-0.057-7.257-0.108l-0.071-0.003
	c-2.44-0.055-4.964-0.109-7.398-0.109c-3.556,0-6.377,0.119-8.884,0.374l-0.217,0.024c-6.965,0.706-12.977,1.315-20.483,11.421
	c-2.15,2.898-4.491,6.656-3.498,10.062c0.642,2.211,2.526,3.891,5.756,5.126c4.02,1.534,13.044,1.8,20.293,2.014l0.247,0.006
	c1.455,0.044,2.79,0.084,3.917,0.136c31.644,1.364,71.704,4.603,128.899,18.252c81.377,19.421,118.094,36.459,127.407,41.22
	c9.938,5.079,15.929,10.096,15.639,13.096c-0.18,1.844-2.975,3.018-5.283,3.68c-3.439,0.987-12.904,2.039-29.163,2.039
	c-15.314,0-70.395-1.18-136.267-16.36c-63.528-14.638-130.547-40.513-152.572-58.91l-0.19-0.156
	c-3.801-3.173-9.543-7.967-10.743-19.307c-1.188-11.224-0.172-18.346,0.644-24.07c0.281-1.964,0.607-3.845,0.896-5.503
	c0.634-3.649,1.136-6.534,0.836-8.254c-0.305-1.744-1.125-3.118-2.576-4.329C36.858,0.564,34.458,0,31.057,0
	c-1.446,0-3.071,0.106-4.84,0.312l-0.274,0.03C20.489,0.972,11.364,2.028,7.275,5.809C3.241,9.542,1.402,15.816,0.494,28.958
	c-0.498,7.223-0.666,18.073,1.369,28.739c2.773,14.537,14.096,27.839,22.952,34.806c17.826,14.033,39.537,26.572,64.529,37.256
	c28.282,12.089,61.255,22.732,98.01,31.632c3.451,0.837,6.925,2.014,8.447,2.86c5.499,3.069,8.528,8.014,8.528,13.925
	c0,4.738-2.203,9.557-5.748,12.587c-2.296,1.957-5.09,2.913-8.543,2.913c-2.225,0-4.419-0.398-6.453-0.824
	c-37.072-7.751-72.171-19.684-104.33-35.469c-33.192-16.293-50.21-30.705-53.283-33.428c-2.641-2.337-4.985-4.678-7.053-6.742
	c-4.614-4.609-7.938-7.926-11.127-7.926c-3.213,0-4.87,3.431-5.415,4.561c-4.981,10.318-1.947,25.438,7.379,36.759
	c3.944,4.793,21.125,21.166,52.793,39.137c9.66,5.479,19.975,10.668,30.654,15.419l0.912,0.405l-0.005,0.009
	c7.949,3.764,11.44,10.188,10.379,19.111c-0.627,5.259-4.819,10.918-12.541,10.918c-2.497,0-5.212-0.591-8.073-1.766
	c-26.995-12.348-48.664-26.892-64.432-43.244c-0.282-0.29-0.527-0.544-0.74-0.764c-3.783-3.865-6.223-6.234-8.547-6.234
	c-0.679,0-1.316,0.202-1.89,0.604c-2.887,2.02-4.436,7.404-4.144,14.403c0.33,7.886,2.773,15.881,6.881,22.505
	c1.897,3.064,3.62,5.305,5.286,7.47c3.186,4.143,5.937,7.715,8.371,15.248c2.646,8.189,3.853,14.468,4.733,19.057
	c1.007,5.252,1.673,8.72,3.653,11.157c4.336,5.346,14.854,8.188,17.602,8.364c0.091,0.003,0.178,0.003,0.266,0.003
	c2.272,0,3.274-2.014,4.334-4.15c0.099-0.197,0.195-0.396,0.295-0.592c2.729-5.389,5.286-9.514,11.153-9.514
	c0.237,0,0.483,0.01,0.736,0.023c5.212,0.305,19.14,5.659,26.975,8.826l0.248,0.096c21.583,8.702,44.825,15.378,69.079,19.853
	c27.664,5.103,53.561,8.013,76.98,8.631c1.666,0.05,6.876,0.057,12.908,0.07l3.074,0.005c14.651,0.025,20.548,2.047,22.527,7.718
	c0.318,0.907,0.444,2.009,0.577,3.179c0.456,3.986,1.061,6.597,5.179,6.597c0.137,0,0.277,0,0.424-0.009
	c0.705-0.029,1.473-0.055,2.29-0.083c8.148-0.283,21.788-0.749,24.817-7.591c4.399-9.941,12.204-17.81,18.041-21.863
	c1.059-0.736,3.231-2.045,5.746-3.562c4.909-2.96,11.633-7.011,14.672-9.573c10.773-9.064,14.284-12.962,15.24-19.679
	c0.517-3.637-0.573-6.064-3.332-7.429c-0.54-0.266-1.268-0.4-2.168-0.4c-2.622,0-6.181,1.167-8.433,2.167
	c-0.992,0.438-11.014,4.416-15.534,6c-7.589,2.661-16.771,4.672-20.867,5.248c-0.578,0.08-1.164,0.167-1.753,0.259
	c-2.498,0.374-5.084,0.761-7.621,0.761c-2.323,0-4.302-0.33-6.057-1.006c-5.779-2.226-6.957-8.184-6.21-12.609
	c1.469-8.687,6.766-13.383,16.193-14.356c0.186-0.023,19.744-2.381,29.934-4.416c15.799-3.158,26.608-6.89,31.449-9.333
	c11.274-5.684,17.436-13.246,19.397-23.795c0.767-4.144,0.766-9.345-3.61-10.581c-0.29-0.083-0.606-0.122-0.968-0.122
	c-1.693-0.003-4.239,0.897-8.099,2.253c-2.533,0.893-5.391,1.904-8.703,2.902c-11.293,3.408-36.068,9.12-75.109,9.12
	c-12.99,0-26.766-0.644-40.943-1.906c-8.234-0.705-14.213-7.007-14.213-14.988c0-8.702,5.819-14.777,14.152-14.777
	c0.248,0,0.502,0.005,0.759,0.01c2.926,0.125,7.693,0.478,13.213,0.889c11.596,0.864,27.479,2.049,39.387,2.049
	c11.468,0,23.01-0.422,34.31-1.26c29.147-2.148,48.989-9.757,58.976-22.605c13.159-16.934,21.035-42.262,22.214-54.043
	c0.398-4.005-0.593-7.406-2.872-9.842C414.923,83.882,405.803,77.388,400.57,75.364z M243.984,240.674
	c6.089,0.576,11.4,1.247,13.683,4.063c1.992,2.461,1.77,7.803,0.07,12.596c-2.132,6.023-7.818,10.793-15.019,11.96
	c-9.453,1.535-40.997-1.884-63.246-5.843c-10.029-1.779-26.064-5.886-32.076-9.166c-5.105-2.788-8.665-7.174-9.612-13.555
	c-0.792-5.333-0.214-10.17,2.186-12.918c1.994-2.28,5.133-3.534,10.243-2.741c3.556,0.555,25.987,6.348,38.956,8.573
	C212.138,237.588,240.566,240.346,243.984,240.674z"/>
</svg>
